<svg width="240" height="182" viewBox="0 0 240 182" fill="none" xmlns="http://www.w3.org/2000/svg">
<path d="M115.62 7L132.493 19.2715C136.584 16.2036 145.992 9.76109 150.901 8.53394C155.809 7.30679 166.24 11.0905 170.842 13.1357C176.466 17.7376 178.818 22.9529 186.181 37.6787C193.544 52.4045 198.452 63.7557 198.452 63.7557L173.91 72.9593C170.842 59.1539 169.308 56.086 169.308 56.086C169.308 56.086 173.398 81.6516 175.443 106.706C144.253 106.706 82.1801 106.092 83.4072 103.638C84.323 101.806 86.879 84.667 88.7903 71.1501C88.5506 72.1974 88.2907 73.3104 88.0091 74.4932L65 56.086C71.1357 43.8145 76.9648 36.4516 81.8734 25.4072C86.782 14.3629 93.6336 10.0679 103.349 7H115.62Z" fill="white" stroke="black" stroke-width="6.13575"/>
</svg>
