<svg width="240" height="182" viewBox="0 0 240 182" fill="none" xmlns="http://www.w3.org/2000/svg">
<g clip-path="url(#clip0_806_561)">
<path d="M98.9643 3L130.464 21L143.964 10.5H161.964C175.464 19 182.364 23.7 191.964 40.5L172.464 75C173.953 86.9096 175.954 103.376 177.818 119.544C180.963 146.817 183.718 173.24 182.964 175.5C181.464 180 92.9643 178.5 76.4643 172.5L79.2589 121.5L82.4643 63L67.4645 28.5C71.9637 21 76.4634 19.5 85.4639 15C88.4997 13.4822 95.4643 7.5 98.9643 3Z" fill="white"/>
<path d="M79.2589 121.5L82.4643 63L67.4645 28.5C71.9637 21 76.4634 19.5 85.4639 15C88.4997 13.4822 95.4643 7.5 98.9643 3L130.464 21M177.818 119.544L172.464 75L191.964 40.5C182.364 23.7 175.464 19 161.964 10.5H143.964L130.464 21M130.464 21C122.464 31.5 106.464 53.1 106.464 55.5M172.464 75C176.464 107 184.164 171.9 182.964 175.5C181.464 180 92.9643 178.5 76.4643 172.5L82.4643 63" stroke="black" stroke-width="6" stroke-linecap="round"/>
<path d="M212 111.609C212 111.609 196.023 53.9995 194 45C190.598 29.8628 173 79.045 173 79.045L178.623 123.001L212 111.609Z" fill="white" stroke="black" stroke-width="6" stroke-linecap="round"/>
<path d="M173 78.0001C180.5 66.0001 183.5 45.0001 189.5 42.0001" stroke="white" stroke-width="11.1"/>
<path d="M79.2589 123L82.4643 64.5L67.4646 30C63.5603 36.5082 47.3682 91.5 50.3685 117L79.2589 123Z" fill="white" stroke="black" stroke-width="6" stroke-linecap="round"/>
<path d="M69.5 33.0001C75.5 36.0001 74 48.0001 83 63.0001" stroke="white" stroke-width="11.1"/>
</g>
<defs>
<clipPath id="clip0_806_561">
<rect width="184" height="182" fill="white" transform="translate(28)"/>
</clipPath>
</defs>
</svg>
