<svg width="240" height="182" viewBox="0 0 240 182" fill="none" xmlns="http://www.w3.org/2000/svg">
<g clip-path="url(#clip0_812_462)">
<path d="M67.4286 39.5714C80 21.9714 99.9048 9.19048 108.286 5L131.857 25.4286L149.143 8.14286C151.762 9.19048 157.345 14.0178 164.071 19.1429C180.571 31.7143 197.333 84.619 212 113.429L172.752 118.929L179.823 168.429H91.8231L93.3946 124.429L79.2517 168.429H72.966L96.5374 66.2857L81.6463 122.857L36 115C41.2381 97.1905 54.8571 57.1714 67.4286 39.5714Z" fill="white"/>
<path d="M131.857 25.4286L108.286 5C99.9048 9.19048 80 21.9714 67.4286 39.5714C54.8571 57.1714 41.2381 97.1905 36 115L81.6463 122.857L96.5374 66.2857L72.966 168.429H79.2517L93.3946 124.429L91.8231 168.429H179.823L172.752 118.929L167.252 71M172.752 118.929L212 113.429C197.333 84.619 180.571 31.7143 164.071 19.1429C157.345 14.0178 151.762 9.19048 149.143 8.14286L131.857 25.4286M131.857 25.4286L116.143 45.8571" stroke="black" stroke-width="6.28572"/>
</g>
<defs>
<clipPath id="clip0_812_462">
<rect width="184" height="182" fill="white" transform="translate(28)"/>
</clipPath>
</defs>
</svg>
