<svg width="240" height="182" viewBox="0 0 240 182" fill="none" xmlns="http://www.w3.org/2000/svg">
<g clip-path="url(#clip0_812_454)">
<path d="M127.436 18.2715L110.562 6H98.291C88.5761 9.06787 81.7245 13.3629 76.8159 24.4072C71.9073 35.4516 40 94.9683 40 111.842L72.2127 114.91C77.3258 93.4344 87.5532 55.086 87.5532 55.086C87.5532 55.086 79.8837 99.5701 78.3497 102.638C77.1226 105.092 139.196 105.706 170.386 105.706C168.341 80.6516 164.25 55.086 164.25 55.086C164.25 55.086 176.432 104.172 179.5 117.977H210.267C210.267 117.977 202.782 86.5937 197.5 71C187 40 171.409 16.7376 165.784 12.1357C161.182 10.0905 150.752 6.30679 145.843 7.53394C140.934 8.76109 131.526 15.2036 127.436 18.2715Z" fill="white" stroke="black" stroke-width="6.13575"/>
</g>
<defs>
<clipPath id="clip0_812_454">
<rect width="184" height="182" fill="white" transform="translate(28)"/>
</clipPath>
</defs>
</svg>
