<svg width="240" height="112" viewBox="0 0 240 112" fill="none" xmlns="http://www.w3.org/2000/svg">
<path d="M132.017 55.0745C136.619 45.8708 145.821 39.7383 155.025 52.0098C155.025 52.0098 159.627 42.8093 165.762 47.408C171.898 52.0066 171.898 70.4145 178.034 82.6866C184.17 94.9586 199.509 93.4265 204.111 91.8921C208.713 90.3577 217.916 79.6206 217.916 79.6206C217.916 79.6206 213.315 82.0057 207.18 82.6866C190.34 84.5554 201.044 61.2108 191.84 36.6678C182.637 12.1248 164.23 10.5916 158.094 9.05694C153.185 7.82924 147.868 9.56848 145.822 10.5916C144.8 8.035 109.008 1.3925 92.1345 7.52577C43.5015 25.2034 39.9798 55.0745 43.0477 75.0188C44.2138 82.5993 24.6405 88.8222 23.1065 88.8222C21.5726 88.8222 36.9118 110.297 49.1833 107.229C61.4548 104.161 69.1245 93.4234 69.1245 93.4234C69.1245 93.4234 77.5974 100.919 97.5386 96.3175C117.48 91.7157 127.415 64.2781 132.017 55.0745Z" fill="white" stroke="black" stroke-width="6.13575"/>
</svg>
