<svg width="240" height="142" viewBox="0 0 240 142" fill="none" xmlns="http://www.w3.org/2000/svg">
<g clip-path="url(#clip0_812_444)">
<path d="M130.315 83.9103H196.315C196.964 89.9104 197.272 104.61 193.315 115.41C189.358 126.21 181.666 133.91 178.315 136.41V142.41H190.315C193.815 128.077 200.915 93.7104 201.315 70.9103C201.815 42.4103 189.315 26.4104 174.315 15.4104C162.315 6.6104 136.315 4.41036 124.815 4.41034C117.482 3.41034 97.915 3.61034 78.315 12.4103C53.815 23.4103 39.315 58.4103 43.815 73.9103C43.5433 89.7138 42 124.339 38 136.41L78.315 139.91C71.71 137.107 57.9 129.6 55.5 122C52.5 112.5 59 95.0897 61.5 93C63.5 91.3283 70.2283 93 74 93C70.4 109.4 80.6483 130.577 86.315 139.91H99.815C98.1483 137.077 94.715 128.21 94.315 115.41C93.815 99.4103 109.315 61.9103 107.315 70.9103C105.715 78.1103 103.5 83.9103 103.5 83.9103H121.815C129.815 83.9103 134.5 55 134.5 55C134.5 55 133.482 78.7437 130.315 83.9103Z" fill="white"/>
<path d="M193 59.5C196.685 63.5 198.482 78.7437 196.315 83.9103M196.315 83.9103H130.315C133.482 78.7437 134.5 55 134.5 55C134.5 55 129.815 83.9103 121.815 83.9103C115.415 83.9103 103.5 83.9103 103.5 83.9103C103.5 83.9103 105.715 78.1103 107.315 70.9103C109.315 61.9103 93.815 99.4103 94.315 115.41C94.715 128.21 98.1483 137.077 99.815 139.91H86.315C80.6483 130.577 70.4 109.4 74 93C70.2283 93 63.5 91.3283 61.5 93C59 95.0897 52.5 112.5 55.5 122C57.9 129.6 71.71 137.107 78.315 139.91L38 136.41C42 124.339 43.5433 89.7138 43.815 73.9103C39.315 58.4103 53.815 23.4103 78.315 12.4103C97.915 3.61034 117.482 3.41034 124.815 4.41034C136.315 4.41036 162.315 6.6104 174.315 15.4104C189.315 26.4104 201.815 42.4103 201.315 70.9103C200.915 93.7104 193.815 128.077 190.315 142.41H178.315V136.41C181.666 133.91 189.358 126.21 193.315 115.41C197.272 104.61 196.964 89.9104 196.315 83.9103Z" stroke="black" stroke-width="6.14"/>
</g>
<defs>
<clipPath id="clip0_812_444">
<rect width="240" height="142" fill="white"/>
</clipPath>
</defs>
</svg>
