<svg width="240" height="112" viewBox="0 0 240 112" fill="none" xmlns="http://www.w3.org/2000/svg">
<path d="M107.772 58.0467C118.51 45.7752 138.451 47.3091 150.722 51.9109C176.492 39.6416 189.071 79.5209 192.139 100.994C196.229 87.1888 197.068 58.4058 190.605 41.1707C186.002 28.8975 170.664 15.0907 161.46 12.0271C152.256 8.96346 144.587 12.029 144.587 12.029C140.496 5.89321 97.0343 2.82052 77.0933 18.1628C33.5975 51.6279 41.8128 88.7239 52.5503 105.597L74.0254 100.995C77.0933 104.063 83.2291 108.665 83.2291 102.529C83.2291 94.8597 97.0345 70.3182 107.772 58.0467Z" fill="white" stroke="black" stroke-width="6.13575"/>
</svg>
