<svg width="240" height="34" viewBox="0 0 240 34" fill="none" xmlns="http://www.w3.org/2000/svg">
<path d="M149.623 12.1087C150.068 11.9401 150.544 11.9732 150.944 12.1693C151.287 12.337 151.492 12.5813 151.594 12.722C151.793 12.997 151.892 13.2935 151.941 13.4544C152.001 13.6497 152.047 13.8563 152.082 14.0482C152.22 14.7944 152.287 15.7746 152.287 16.3861C152.287 17.4126 152.032 18.3287 151.513 19.0951C150.999 19.8532 150.299 20.3592 149.574 20.6947C148.183 21.3388 146.509 21.4417 145.205 21.4418C144.326 21.4418 143.654 21.4355 143.185 21.4115C142.957 21.3998 142.72 21.3814 142.51 21.3441C142.407 21.3258 142.255 21.2937 142.092 21.2318C141.969 21.1852 141.612 21.0401 141.331 20.6712C140.944 20.1622 140.924 19.5371 141.13 19.0511C141.282 18.6927 141.525 18.4798 141.613 18.4046C141.816 18.2323 142.049 18.1095 142.172 18.0462C142.448 17.9039 142.881 17.7125 143.265 17.5345C145.02 16.7204 147.498 15.3913 148.607 13.0912L148.719 12.8841C148.764 12.8089 148.819 12.7293 148.884 12.6498C149.004 12.5011 149.241 12.2536 149.623 12.1087ZM153.63 12.1693C154.03 11.9732 154.507 11.9401 154.951 12.1087C155.333 12.2536 155.57 12.5011 155.69 12.6498C155.755 12.7293 155.81 12.809 155.855 12.8841L155.967 13.0912C157.077 15.3912 159.554 16.7204 161.31 17.5345C161.693 17.7124 162.126 17.9039 162.402 18.0462C162.525 18.1095 162.758 18.2324 162.961 18.4046C163.05 18.4799 163.292 18.6929 163.444 19.0511C163.651 19.5371 163.63 20.1623 163.243 20.6712C162.962 21.0402 162.605 21.1852 162.482 21.2318C162.319 21.2937 162.168 21.3258 162.064 21.3441C161.854 21.3814 161.617 21.3998 161.389 21.4115C160.92 21.4355 160.248 21.4418 159.369 21.4418C158.065 21.4418 156.391 21.3387 155 20.6947C154.276 20.3593 153.575 19.8531 153.061 19.0951C152.542 18.3287 152.287 17.4126 152.287 16.3861C152.287 15.7746 152.355 14.7945 152.492 14.0482C152.528 13.8563 152.573 13.6497 152.633 13.4544C152.682 13.2935 152.781 12.9971 152.98 12.722C153.082 12.5812 153.287 12.337 153.63 12.1693Z" fill="black"/>
</svg>
