<svg width="240" height="366" viewBox="0 0 240 366" fill="none" xmlns="http://www.w3.org/2000/svg">
<path d="M99.5406 157.015C100.74 153.548 96.0434 151.181 93.9699 154.208L47.3724 222.232C44.1426 226.947 45.8093 233.428 50.9129 235.999L59.4232 240.288C64.5268 242.859 70.7271 240.343 72.5947 234.942L99.5406 157.015Z" fill="white" stroke="black" stroke-width="4.72068"/>
<path d="M144.449 163.237C143.292 159.756 148.016 157.446 150.053 160.497L195.83 229.076C199.003 233.829 197.258 240.29 192.124 242.8L183.563 246.986C178.429 249.496 172.259 246.905 170.457 241.482L144.449 163.237Z" fill="white" stroke="black" stroke-width="4.72068"/>
<path d="M81.3541 251.748C68.3779 251.748 103.384 144.746 103.384 144.746L123.84 147.893L141.149 146.32C141.149 146.32 158.459 251.748 152.165 251.748H81.3541Z" fill="white" stroke="black" stroke-width="6.29424" stroke-linecap="round"/>
<path d="M188.355 346.535C200.408 341.334 160.031 320.987 160.031 320.987L144.295 251.75H128.56L130.133 325.707C130.133 325.707 181.169 349.636 188.355 346.535Z" fill="white" stroke="black" stroke-width="6.29424" stroke-linecap="round"/>
<path d="M54.2492 340.797C72.1282 346.8 109.677 324.288 109.677 324.288V251.75H92.3677L81.3528 319.413C81.3528 319.413 46.8249 338.304 54.2492 340.797Z" fill="white" stroke="black" stroke-width="6.29424" stroke-linecap="round"/>
<path d="M57.7997 259.488L54.6573 269.187C54.4317 269.191 54.1889 269.195 53.9314 269.197C52.2975 269.208 50.0767 269.175 47.716 268.998C45.3449 268.821 42.8931 268.503 40.7731 267.967C38.6025 267.417 37.032 266.699 36.1697 265.875C34.7642 264.532 35.08 262.484 36.7254 259.819C37.4898 258.581 38.4131 257.446 39.1632 256.608C39.2621 256.497 39.3595 256.394 39.4503 256.296L57.7997 259.488Z" fill="white" stroke="black" stroke-width="4.72068"/>
<path d="M181.967 259.859L185.109 269.558C185.335 269.561 185.577 269.566 185.835 269.568C187.469 269.579 189.69 269.546 192.05 269.369C194.421 269.192 196.873 268.874 198.993 268.338C201.164 267.788 202.734 267.07 203.596 266.246C205.002 264.903 204.686 262.855 203.041 260.19C202.276 258.952 201.353 257.817 200.603 256.979C200.504 256.868 200.407 256.765 200.316 256.667L181.967 259.859Z" fill="white" stroke="black" stroke-width="4.72068"/>
<path d="M164.012 145.355C181.675 134.771 181.507 118.22 183.919 97.4044C185.602 82.8843 183.919 66.2955 181.021 57.8781C178.123 49.4606 167.754 26.6389 136.361 21.4053C130.219 20.3813 94.9098 13.3748 66.9719 29.3671C41.6798 43.8449 41.8942 76.4532 43.4206 81.421C44.6418 85.3953 48.5816 93.7325 50.3988 97.4044C49.1631 97.6924 43.4203 102.211 41.8942 112.092C39.6606 126.553 43.4206 135.635 53.2336 140.819C61.0841 144.966 74.0954 142.547 79.6198 140.819C101.863 145.858 149.881 153.821 164.012 145.355Z" fill="white"/>
<path d="M50.3988 97.4044C49.1631 97.6924 43.4203 102.211 41.8942 112.092C39.6606 126.553 43.4206 135.635 53.2336 140.819C61.0841 144.966 74.0954 142.547 79.6198 140.819C101.863 145.858 149.881 153.821 164.012 145.355C181.675 134.771 181.507 118.22 183.919 97.4044C185.602 82.8843 183.919 66.2955 181.021 57.8781C178.123 49.4606 167.754 26.6389 136.361 21.4053C130.219 20.3813 94.9098 13.3748 66.9719 29.3671C41.6798 43.8449 41.8942 76.4532 43.4206 81.421C44.6418 85.3953 48.5816 93.7325 50.3988 97.4044ZM50.3988 97.4044L70.9398 99.6493" stroke="black" stroke-width="6.24622" stroke-linecap="round"/>
</svg>
